<svg
                  width="50"
                  height="50"
                  version="1.1"
                  id="_x32_"
                  xmlns="http://www.w3.org/2000/svg"
                  xmlnsXlink="http://www.w3.org/1999/xlink"
                  viewBox="0 0 512 512"
                  xmlSpace="preserve"
                  fill="#ffffff"
                  stroke="#ffffff"
                >
                  <path
                    className="st0"
                    d="M474.803,351.766l-41.189-136.924c-1.557-5.06-6.256-8.554-11.553-8.554h-14.387V38.4 C407.665,17.176,390.48,0.009,369.265,0H141.674c-21.215,0.009-38.4,17.176-38.4,38.4v171.866h-9.38 c-4.998,0-9.512,3.124-11.263,7.823L37.474,338.523c-1.452,3.846-0.845,8.131,1.627,11.44c2.402,3.256,6.318,5.06,10.41,4.813 l44.384-3.009v129.462c0,16.983,13.788,30.771,30.709,30.771h261.75c16.912,0,30.709-13.788,30.709-30.771V362.246l44.858,4.998 c3.968,0.414,8.008-1.206,10.594-4.276S475.947,355.62,474.803,351.766z M311.411,23.362h57.855 c4.189,0.009,7.884,1.664,10.638,4.408c2.746,2.754,4.4,6.442,4.408,10.63v61.99h-72.901V23.362z M311.411,117.909h72.901v78.27 h-72.901V117.909z M311.411,213.698h70.253l-6.459,2.587l-62.07,24.814l-1.725,0.687V213.698z M217.435,23.362h76.448v77.028 h-76.448V23.362z M217.435,117.909h76.448v78.27h-76.448V117.909z M217.435,213.698h76.448v35.091l-53.851,21.568l-22.596-12.011 V213.698z M126.636,38.4c0-4.188,1.663-7.875,4.4-10.63c2.762-2.744,6.45-4.399,10.638-4.408h58.242v77.028h-73.28V38.4z M126.636,117.909h73.28v78.27h-73.28V117.909z M199.916,213.698v35.355l-1.734-0.914l-59.914-31.854l-4.866-2.587H199.916z M239.732,317.81l-24.629,1.68l-121.208,8.192l-27.34,1.804l35.708-95.137h18.724l98.754,52.505l15.715,8.306l3.194,1.69 l3.731,1.988l25.949,13.789l5.42,2.886L239.732,317.81z M417.063,337.916l-64.173-7.179l-30.41-16.551 c-0.052-0.036-0.079-0.08-0.132-0.106l-2.71-1.452l-51.722-27.463l136.986-54.792h8.184l33.357,110.861L417.063,337.916z"
                  ></path>{" "}
                </svg>